<svg width="1024" height="1024" viewBox="0 0 1024 1024" fill="none" xmlns="http://www.w3.org/2000/svg">
<rect width="1024" height="1024" fill="#FFE145"/>
<mask id="mask0" mask-type="alpha" maskUnits="userSpaceOnUse" x="234" y="222" width="555" height="581">
<rect x="234" y="222" width="555" height="580.175" fill="#C4C4C4"/>
</mask>
<g mask="url(#mask0)">
<rect x="234" y="588.186" width="555" height="30.8969" rx="15.4485" fill="white"/>
<rect x="234" y="679.732" width="555" height="30.8969" rx="15.4485" fill="white"/>
<rect x="234" y="771.278" width="555" height="30.8969" rx="15.4485" fill="white"/>
<rect x="512.072" y="496.639" width="276.928" height="30.8969" rx="15.4485" fill="white"/>
<rect x="512.072" y="405.093" width="276.928" height="30.8969" rx="15.4485" fill="white"/>
<rect x="512.072" y="313.546" width="276.928" height="30.8969" rx="15.4485" fill="white"/>
<rect x="512.072" y="222" width="276.928" height="30.8969" rx="15.4485" fill="white"/>
<mask id="mask1" mask-type="alpha" maskUnits="userSpaceOnUse" x="278" y="222" width="147" height="304">
<path d="M279.669 456.183L310 434C322 425 338 400 338 376.5V226.5C338 224.291 339.791 222.5 342 222.5H421C423.209 222.5 425 224.291 425 226.5V357C425 408.5 422 453 362.5 500.5L328.283 525.136C326.476 526.437 323.954 526.012 322.674 524.19L278.757 461.712C277.504 459.928 277.909 457.469 279.669 456.183Z" fill="#15BAEA"/>
</mask>
<g mask="url(#mask1)">
<rect x="234" y="193" width="234" height="356" fill="#15BAEA"/>
<path d="M399 204L320 212.5L271.5 461.5L281.5 527L349 478.5C390 445.5 399 413 399 375V204Z" fill="white"/>
<rect x="224" y="222" width="237" height="262" fill="url(#paint0_linear)"/>
</g>
</g>
<defs>
<linearGradient id="paint0_linear" x1="342.5" y1="222" x2="342.5" y2="484" gradientUnits="userSpaceOnUse">
<stop stop-color="white" stop-opacity="0.9"/>
<stop offset="1" stop-color="white" stop-opacity="0"/>
</linearGradient>
</defs>
</svg>
